<svg width="25" height="24" viewBox="0 0 25 24" fill="none" xmlns="http://www.w3.org/2000/svg">
<g id="icon/bell">
<path id="Vector" d="M18.3157 8C18.3157 6.4087 17.6835 4.88258 16.5583 3.75736C15.4331 2.63214 13.907 2 12.3157 2C10.7244 2 9.19825 2.63214 8.07303 3.75736C6.94782 4.88258 6.31567 6.4087 6.31567 8C6.31567 15 3.31567 17 3.31567 17H21.3157C21.3157 17 18.3157 15 18.3157 8Z" stroke="white" stroke-width="1.33333" stroke-linecap="round" stroke-linejoin="round"/>
<path id="Vector_2" d="M14.0457 21C13.8699 21.3031 13.6175 21.5547 13.3139 21.7295C13.0103 21.9044 12.6661 21.9965 12.3157 21.9965C11.9653 21.9965 11.6211 21.9044 11.3175 21.7295C11.0138 21.5547 10.7615 21.3031 10.5857 21" stroke="white" stroke-width="1.33333" stroke-linecap="round" stroke-linejoin="round"/>
</g>
</svg>
